<svg viewBox="0 0 1440 100" xmlns="http://www.w3.org/2000/svg">
  <path fill="#fff" fill-opacity="1" d="M0,64L30,58.7C60,53,120,43,180,48C240,53,300,75,360,80C420,85,480,75,540,64C600,53,660,43,720,42.7C780,43,840,53,900,53.3C960,53,1020,43,1080,37.3C1140,32,1200,32,1260,42.7C1320,53,1380,75,1410,85.3L1440,96L1440,100L1410,100C1380,100,1320,100,1260,100C1200,100,1140,100,1080,100C1020,100,960,100,900,100C840,100,780,100,720,100C660,100,600,100,540,100C480,100,420,100,360,100C300,100,240,100,180,100C120,100,60,100,30,100L0,100Z"></path>
</svg>
